<?xml version="1.0" encoding="UTF-8"?>
<svg xmlns="http://www.w3.org/2000/svg" xmlns:xlink="http://www.w3.org/1999/xlink" width="32px" height="32px" viewBox="0 0 32 32" version="1.1">
<g id="surface1">
<path style="fill-rule:nonzero;fill:rgb(100%,100%,100%);fill-opacity:1;stroke-width:1.056;stroke-linecap:butt;stroke-linejoin:miter;stroke:rgb(100%,100%,100%);stroke-opacity:1;stroke-miterlimit:4;" d="M 23.5 13 C 25.101562 13 26.601562 13.5 27.898438 14.300781 L 25.699219 7.199219 C 25.101562 5.300781 23.398438 4 21.5 4 C 19 4 17 6 17 8.5 L 17 16.101562 C 18.601562 14.199219 20.898438 13 23.5 13 Z M 23.5 13 "/>
<path style="fill-rule:nonzero;fill:rgb(100%,100%,100%);fill-opacity:1;stroke-width:1.056;stroke-linecap:butt;stroke-linejoin:miter;stroke:rgb(100%,100%,100%);stroke-opacity:1;stroke-miterlimit:4;" d="M 8.5 13 C 11.101562 13 13.398438 14.199219 15 16.101562 L 15 8.5 C 15 6 13 4 10.5 4 C 8.5 4 6.800781 5.300781 6.199219 7.101562 L 4 14.199219 C 5.398438 13.5 6.898438 13 8.5 13 Z M 8.5 13 "/>
<path style="fill-rule:nonzero;fill:rgb(100%,100%,100%);fill-opacity:1;stroke-width:1.056;stroke-linecap:butt;stroke-linejoin:miter;stroke:rgb(100%,100%,100%);stroke-opacity:1;stroke-miterlimit:4;" d="M 8.5 15 C 4.898438 15 2 17.898438 2 21.5 C 2 25.101562 4.898438 28 8.5 28 C 12.101562 28 15 25.101562 15 21.5 C 15 17.898438 12.101562 15 8.5 15 Z M 11.5 21 C 10.699219 21 10 20.300781 10 19.5 C 10 18.699219 10.699219 18 11.5 18 C 12.300781 18 13 18.699219 13 19.5 C 13 20.300781 12.300781 21 11.5 21 Z M 11.5 21 "/>
<path style="fill-rule:nonzero;fill:rgb(100%,100%,100%);fill-opacity:1;stroke-width:1.056;stroke-linecap:butt;stroke-linejoin:miter;stroke:rgb(100%,100%,100%);stroke-opacity:1;stroke-miterlimit:4;" d="M 23.5 15 C 19.898438 15 17 17.898438 17 21.5 C 17 25.101562 19.898438 28 23.5 28 C 27.101562 28 30 25.101562 30 21.5 C 30 17.898438 27.101562 15 23.5 15 Z M 26.5 21 C 25.699219 21 25 20.300781 25 19.5 C 25 18.699219 25.699219 18 26.5 18 C 27.300781 18 28 18.699219 28 19.5 C 28 20.300781 27.300781 21 26.5 21 Z M 26.5 21 "/>
</g>
</svg>
