<!DOCTYPE svg PUBLIC "-//W3C//DTD SVG 1.1//EN" "http://www.w3.org/Graphics/SVG/1.1/DTD/svg11.dtd">
<!-- Uploaded to: SVG Repo, www.svgrepo.com, Transformed by: SVG Repo Mixer Tools -->
<svg fill="#ffffff" height="64px" width="64px" version="1.1" id="Icons" xmlns="http://www.w3.org/2000/svg" xmlns:xlink="http://www.w3.org/1999/xlink" viewBox="0 0 32.00 32.00" xml:space="preserve" stroke="#ffffff" stroke-width="1.056" transform="rotate(0)">
<g id="SVGRepo_bgCarrier" stroke-width="0"/>
<g id="SVGRepo_tracerCarrier" stroke-linecap="round" stroke-linejoin="round" stroke="#CCCCCC" stroke-width="0.64"/>
<g id="SVGRepo_iconCarrier"> <path d="M23.5,13c1.6,0,3.1,0.5,4.4,1.3l-2.2-7.1C25.1,5.3,23.4,4,21.5,4C19,4,17,6,17,8.5v7.6C18.6,14.2,20.9,13,23.5,13z"/> <path d="M8.5,13c2.6,0,4.9,1.2,6.5,3.1V8.5C15,6,13,4,10.5,4c-2,0-3.7,1.3-4.3,3.1l-2.2,7.1C5.4,13.5,6.9,13,8.5,13z"/> <path d="M8.5,15C4.9,15,2,17.9,2,21.5S4.9,28,8.5,28s6.5-2.9,6.5-6.5S12.1,15,8.5,15z M11.5,21c-0.8,0-1.5-0.7-1.5-1.5 s0.7-1.5,1.5-1.5s1.5,0.7,1.5,1.5S12.3,21,11.5,21z"/> <path d="M23.5,15c-3.6,0-6.5,2.9-6.5,6.5s2.9,6.5,6.5,6.5s6.5-2.9,6.5-6.5S27.1,15,23.5,15z M26.5,21c-0.8,0-1.5-0.7-1.5-1.5 s0.7-1.5,1.5-1.5s1.5,0.7,1.5,1.5S27.3,21,26.5,21z"/> </g>
</svg>